<?xml version="1.0" encoding="UTF-8" standalone="no"?>
<svg
   xmlns:dc="http://purl.org/dc/elements/1.1/"
   xmlns:cc="http://creativecommons.org/ns#"
   xmlns:rdf="http://www.w3.org/1999/02/22-rdf-syntax-ns#"
   xmlns:svg="http://www.w3.org/2000/svg"
   xmlns="http://www.w3.org/2000/svg"
   xmlns:sodipodi="http://sodipodi.sourceforge.net/DTD/sodipodi-0.dtd"
   xmlns:inkscape="http://www.inkscape.org/namespaces/inkscape"
   width="206"
   height="60"
   viewBox="0 0 206 60.000001"
   id="svg2"
   version="1.1"
   inkscape:version="0.91 r13725"
   sodipodi:docname="Acc_Digital_Lockup_BLK.svg">
  <metadata
     id="metadata28">
    <rdf:RDF>
      <cc:Work
         rdf:about="">
        <dc:format>image/svg+xml</dc:format>
        <dc:type
           rdf:resource="http://purl.org/dc/dcmitype/StillImage" />
      </cc:Work>
    </rdf:RDF>
  </metadata>
  <sodipodi:namedview
     pagecolor="#ffffff"
     bordercolor="#666666"
     borderopacity="1"
     objecttolerance="10"
     gridtolerance="10"
     guidetolerance="10"
     inkscape:pageopacity="0"
     inkscape:pageshadow="2"
     inkscape:window-width="1280"
     inkscape:window-height="666"
     id="namedview26"
     showgrid="false"
     inkscape:zoom="1.3980583"
     inkscape:cx="-2.5034722"
     inkscape:cy="30"
     inkscape:window-x="-8"
     inkscape:window-y="-8"
     inkscape:window-maximized="1"
     inkscape:current-layer="g4409" />
  <defs
     id="defs4">
    <style
       id="style4236">.cls-1{fill:#ff9500;}</style>
  </defs>
  <g
     id="layer2">
    <g
       id="g4409">
      <path
         id="polygon4368"
         class="st0"
         fill="#ffd42e"
         d="M77.34 15.91l7.646-2.847-7.645-2.928V6.15l13.095 5.286v3.253L77.34 19.975z" />
      <path
         id="path4370"
         d="M5.042 41.12C2.277 41.12 0 39.738 0 36.647v-.162c0-3.74 3.253-5.042 7.238-5.042h1.87v-.732c0-1.545-.65-2.44-2.277-2.44-1.137-.08-2.194.733-2.276 1.87v.083H.488c.325-3.416 3.01-5.043 6.587-5.043 3.58 0 6.344 1.627 6.344 5.368v10.247H9.27v-1.79c-.975 1.465-2.6 2.197-4.228 2.115zm4.067-5.367V34.29H7.4c-2.114 0-3.17.568-3.17 1.95v.163c0 1.058.65 1.79 2.113 1.79 1.464 0 2.766-.895 2.766-2.44z"
         class="st1"
         style="fill:#000000;fill-opacity:1" />
      <path
         id="path4372"
         d="M23.097 41.12c-4.23 0-7.32-2.602-7.32-7.807v-.163c0-5.204 3.253-7.97 7.32-7.97 3.497 0 6.343 1.79 6.668 5.775H25.7c-.245-1.464-1.058-2.44-2.522-2.44-1.79 0-3.09 1.464-3.09 4.473v.488c0 3.09 1.138 4.473 3.09 4.473 1.464 0 2.52-1.06 2.765-2.766h3.904c-.244 3.497-2.603 5.936-6.75 5.936z"
         class="st1"
         style="fill:#000000;fill-opacity:1" />
      <path
         id="path4374"
         d="M39.037 41.12c-4.23 0-7.32-2.602-7.32-7.807v-.163c0-5.204 3.253-7.97 7.32-7.97 3.497 0 6.343 1.79 6.668 5.775H41.64c-.245-1.464-1.058-2.44-2.522-2.44-1.79 0-3.09 1.464-3.09 4.473v.488c0 3.09 1.138 4.473 3.09 4.473 1.464 0 2.52-1.06 2.765-2.766h3.904c-.244 3.497-2.603 5.936-6.75 5.936z"
         class="st1"
         style="fill:#000000;fill-opacity:1" />
      <path
         id="path4376"
         d="M55.058 41.12c-4.392 0-7.4-2.602-7.4-7.726v-.325c0-5.124 3.17-7.97 7.32-7.97 3.82 0 6.993 2.114 6.993 7.237v1.87H51.97c.162 2.766 1.382 3.823 3.17 3.823 1.303.163 2.522-.732 2.848-2.033h3.985c-.487 2.928-2.927 5.123-6.912 5.123zm-3.01-9.76h5.775c-.08-2.276-1.138-3.252-2.846-3.252-1.383.08-2.603.813-2.928 3.253z"
         class="st1"
         style="fill:#000000;fill-opacity:1" />
      <path
         id="path4378"
         d="M64.573 25.506h4.23v2.277c.894-1.708 2.683-2.684 4.635-2.603 2.765 0 4.635 1.627 4.635 5.368v10.247h-4.31V31.2c0-1.79-.732-2.604-2.277-2.604-1.383-.08-2.602.976-2.684 2.44v9.759h-4.23v-15.29z"
         class="st1"
         style="fill:#000000;fill-opacity:1" />
      <path
         id="path4380"
         d="M86.043 20.87v4.636h2.928v3.17h-2.927v7.24c0 1.138.488 1.626 1.546 1.626.487 0 .975-.08 1.463-.244v3.334c-.814.244-1.627.326-2.44.326-3.335 0-4.88-1.545-4.88-4.636v-7.726h-1.79v-3.172h1.79v-2.846l4.31-1.708z"
         class="st1"
         style="fill:#000000;fill-opacity:1" />
      <path
         id="path4382"
         d="M105.074 40.795h-4.31v-2.277c-.814 1.708-2.603 2.684-4.473 2.602-2.765 0-4.798-1.626-4.798-5.286V25.506h4.31v9.76c0 1.788.733 2.6 2.196 2.6 1.383.083 2.603-1.056 2.684-2.438v-9.921h4.31v15.29z"
         class="st1"
         style="fill:#000000;fill-opacity:1" />
      <path
         id="path4384"
         d="M108.164 25.506h4.23v2.846c.65-1.952 2.602-3.172 4.553-3.01v4.23c-2.927 0-4.554.895-4.554 3.416v7.888h-4.23v-15.37z"
         class="st1"
         style="fill:#000000;fill-opacity:1" />
      <path
         id="path4386"
         d="M125.893 41.12c-4.39 0-7.4-2.602-7.4-7.726v-.325c0-5.124 3.17-7.97 7.32-7.97 3.82 0 6.993 2.114 6.993 7.237v1.87h-10.003c.163 2.766 1.383 3.823 3.172 3.823 1.3.163 2.52-.732 2.846-2.033h3.986c-.57 2.928-2.928 5.123-6.913 5.123zm-3.09-9.76h5.774c-.08-2.276-1.138-3.252-2.846-3.252-1.3.08-2.602.813-2.927 3.253z"
         class="st1"
         style="fill:#000000;fill-opacity:1" />
      <path
         id="path4388"
         d="M148.746 40.795h-2.196v-2.52c-.976 1.707-2.846 2.683-4.798 2.764-3.578 0-6.1-2.44-6.1-6.832v-1.952c0-4.23 2.522-7.076 6.263-7.076 1.87-.08 3.66.895 4.554 2.603v-9.19h2.195l.08 22.202zm-2.114-8.54c0-3.415-1.627-5.204-4.31-5.204-2.684 0-4.31 1.87-4.31 5.206v1.952c0 3.415 1.788 5.042 4.065 5.042 2.603 0 4.555-1.708 4.555-5.205v-1.79z"
         class="st0"
         fill="#ffd42e" />
      <path
         id="path4390"
         d="M152.162 21.033c0-.813.65-1.464 1.464-1.464.813 0 1.464.65 1.464 1.463 0 .813-.65 1.464-1.464 1.464s-1.464-.65-1.464-1.464zm.325 4.473h2.196v15.29h-2.196v-15.29z"
         class="st0"
         fill="#ffd42e" />
      <path
         id="path4392"
         d="M164.198 46c-4.066 0-5.937-1.87-6.262-4.392h2.196c.325 1.708 1.626 2.52 3.985 2.52 2.684 0 4.39-1.3 4.39-4.39v-2.196c-.974 1.708-2.764 2.684-4.715 2.765-3.58 0-6.1-2.602-6.1-6.587v-1.708c0-3.904 2.52-6.832 6.262-6.832 1.87-.08 3.66.895 4.554 2.603v-2.36h2.196v14.478c0 4.148-2.602 6.1-6.506 6.1zm4.392-12.362v-1.545c0-3.172-1.627-4.96-4.31-4.96-2.684 0-4.23 1.95-4.23 4.88V33.8c0 3.09 1.79 4.8 4.148 4.8 2.52-.082 4.392-1.87 4.392-4.962z"
         class="st0"
         fill="#ffd42e" />
      <path
         id="path4394"
         d="M174.2 21.033c0-.813.652-1.464 1.465-1.464.813 0 1.464.65 1.464 1.463 0 .813-.652 1.464-1.465 1.464-.813 0-1.464-.65-1.464-1.464zm.408 4.473h2.196v15.29h-2.196v-15.29z"
         class="st0"
         fill="#ffd42e" />
      <path
         id="path4396"
         d="M183.473 22.09v3.416h3.253v1.87h-3.253v9.597c0 1.464.65 2.196 1.79 2.196.568 0 1.137-.083 1.625-.245v1.87c-.57.244-1.22.325-1.79.325-2.6 0-3.903-1.463-3.903-3.822v-9.76h-2.033v-1.87h2.033v-3.415l2.278-.163z"
         class="st0"
         fill="#ffd42e" />
      <path
         id="path4398"
         d="M193.557 41.04c-2.765 0-4.717-1.465-4.717-4.393v-.162c0-3.416 3.172-4.554 6.832-4.554h2.195v-1.463c0-2.278-.813-3.335-3.01-3.335-1.95 0-3.008.895-3.252 2.684h-2.196c.243-3.253 2.683-4.473 5.53-4.473 2.846 0 5.123 1.3 5.123 5.124v10.41h-2.196v-1.87c-1.057 1.3-2.683 2.113-4.31 2.032zm4.31-5.206v-2.358h-2.114c-2.765 0-4.636.732-4.636 3.01v.16c0 1.628.814 2.685 2.765 2.685 2.277 0 3.985-1.22 3.985-3.496z"
         class="st0"
         fill="#ffd42e" />
      <path
         id="path4400"
         d="M203.723 18.593H206v22.283h-2.277V18.593z"
         class="st0"
         fill="#ffd42e" />
    </g>
  </g>
  <style
     id="style4299">.st0{fill:#FFD42E;} .st1{fill:#FFFFFF;}</style>
  <style
     id="style4364">.st0{fill:#FFD42E;} .st1{fill:#FFFFFF;}</style>
</svg>
