<?xml version="1.0" encoding="UTF-8" standalone="no"?>
<svg
   xmlns:dc="http://purl.org/dc/elements/1.1/"
   xmlns:cc="http://creativecommons.org/ns#"
   xmlns:rdf="http://www.w3.org/1999/02/22-rdf-syntax-ns#"
   xmlns:svg="http://www.w3.org/2000/svg"
   xmlns="http://www.w3.org/2000/svg"
   version="1.1"
   id="svg2"
   viewBox="0 0 144 60.000001"
   height="60"
   width="144">
  <metadata
     id="metadata4504">
    <rdf:RDF>
      <cc:Work
         rdf:about="">
        <dc:format>image/svg+xml</dc:format>
        <dc:type
           rdf:resource="http://purl.org/dc/dcmitype/StillImage" />
        <dc:title></dc:title>
      </cc:Work>
    </rdf:RDF>
  </metadata>
  <defs
     id="defs4">
    <style
       id="style4236">.cls-1{fill:#ff9500;}</style>
    <clipPath
       id="clipPath4526">
      <path
         d="M0 792h612V0H0v792z"
         id="path4528" />
    </clipPath>
  </defs>
  <g
     id="layer2">
    <g
       id="g4516">
      <g
         id="g4518">
        <path
           style="fill:#aa1133;fill-opacity:1"
           fill="#8fff3c"
           d="M82.383 12.077l8.138-3.024-8.137-3.18v-4.21L96.32 7.275v3.492L82.383 16.41v-4.333z"
           id="path4520" />
      </g>
      <g
         id="g4522">
        <g
           transform="matrix(.86617 0 0 -.86617 -181.962 470.736)"
           id="g4524"
           clip-path="url(#clipPath4526)">
          <g
             id="g4530">
            <path
               d="M361.095 510.52h7.056c-.108 2.77-1.368 3.96-3.455 3.96-1.656 0-3.167-.9-3.6-3.96m3.744-11.986c-5.436 0-9.143 3.24-9.143 9.502v.36c0 6.3 3.922 9.755 8.96 9.755 4.68 0 8.605-2.627 8.605-8.854v-2.268h-12.238c.216-3.383 1.655-4.68 3.923-4.68 2.015 0 3.095 1.08 3.456 2.448h4.86c-.577-3.563-3.492-6.262-8.424-6.262m-21.708 19.22h5.255V514.3c1.116 2.52 2.88 3.706 5.65 3.706v-5.182c-3.562 0-5.65-1.08-5.65-4.212v-9.683h-5.255v18.824zm-3.817-18.825h-5.256v2.77c-.9-1.8-2.664-3.166-5.473-3.166-3.383 0-5.867 2.052-5.867 6.478v12.742h5.292v-11.95c0-2.16.863-3.167 2.735-3.167 1.836 0 3.312 1.152 3.312 3.49v11.627h5.255V498.93zm-23.4 24.512v-5.688h3.6v-3.922h-3.6v-8.927c0-1.405.648-2.052 1.872-2.052.756 0 1.33.108 1.835.323v-4.103c-.61-.18-1.655-.396-2.95-.396-4.104 0-6.048 1.872-6.048 5.688v9.467h-2.196v3.922h2.196v3.53l5.29 2.158zm-26.46-5.688h5.256v-2.807c.938 1.764 2.81 3.204 5.69 3.204 3.42 0 5.686-2.05 5.686-6.622v-12.6h-5.256v11.808c0 2.195-.9 3.168-2.807 3.168-1.835 0-3.312-1.116-3.312-3.492V498.93h-5.254v18.824zm-15.407-7.234h7.056c-.11 2.77-1.368 3.96-3.456 3.96-1.656 0-3.167-.9-3.6-3.96m3.744-11.986c-5.435 0-9.142 3.24-9.142 9.502v.36c0 6.3 3.923 9.755 8.962 9.755 4.68 0 8.603-2.627 8.603-8.854v-2.268h-12.238c.216-3.383 1.655-4.68 3.923-4.68 2.015 0 3.095 1.08 3.456 2.448h4.86c-.577-3.563-3.492-6.262-8.424-6.262m-19.728 0c-5.22 0-8.998 3.24-8.998 9.61v.252c0 6.37 4.03 9.755 9.034 9.755 4.283 0 7.81-2.16 8.243-7.09h-5.04c-.323 1.835-1.26 3.024-3.095 3.024-2.232 0-3.78-1.764-3.78-5.472v-.576c0-3.816 1.368-5.543 3.816-5.543 1.8 0 3.13 1.332 3.42 3.384h4.787c-.36-4.284-3.275-7.343-8.386-7.343m-19.584 0c-5.22 0-8.998 3.24-8.998 9.61v.252c0 6.37 4.03 9.755 9.034 9.755 4.283 0 7.81-2.16 8.243-7.09h-5.04c-.324 1.835-1.26 3.024-3.096 3.024-2.232 0-3.78-1.764-3.78-5.472v-.576c0-3.816 1.368-5.543 3.816-5.543 1.8 0 3.13 1.332 3.42 3.384h4.787c-.36-4.284-3.276-7.343-8.387-7.343m-17.172 6.66v1.798h-2.088c-2.592 0-3.923-.72-3.923-2.41v-.18c0-1.297.792-2.197 2.556-2.197 1.8 0 3.455 1.007 3.455 2.988m-5.04-6.66c-3.383 0-6.19 1.728-6.19 5.544v.216c0 4.643 4.03 6.155 8.89 6.155h2.34v.9c0 1.87-.828 3.024-2.772 3.024-1.763 0-2.7-1.008-2.843-2.45h-5.04c.36 4.177 3.67 6.23 8.135 6.23 4.536 0 7.776-1.945 7.776-6.624v-12.6h-5.148v2.16c-.9-1.367-2.628-2.554-5.147-2.554"
               id="path4532" />
          </g>
          <g
             id="g4534">
            <path
               d="M374.758 480.724c0 .44.355.784.784.784.43 0 .784-.343.784-.784 0-.442-.355-.784-.784-.784-.43 0-.784.342-.784.784m-2.468 2.438v.097c0 1.64-.784 2.412-2.032 2.412-1.275 0-2.034-.894-2.034-2.45v-.097c0-1.617.87-2.39 1.948-2.39 1.188 0 2.118.785 2.118 2.427m-5.12-.086v.098c0 1.96 1.226 3.344 2.99 3.344 1.065 0 1.726-.515 2.094-1.14v4.09h1.017v-9.467h-1.016v1.103c-.368-.624-1.262-1.213-2.193-1.213-1.677 0-2.89 1.19-2.89 3.186m-2.123.747c-.097 1.322-.784 1.85-1.837 1.85-1.04 0-1.74-.71-1.91-1.85h3.747zm-4.838-.686v.097c0 1.936 1.236 3.284 3 3.284 1.482 0 2.88-.895 2.88-3.185v-.33h-4.828c.05-1.46.747-2.267 2.058-2.267.992 0 1.568.367 1.702 1.114h1.018c-.222-1.286-1.287-1.96-2.732-1.96-1.813 0-3.1 1.275-3.1 3.247m-3.945 3.27h1.017v-1.15c.404.72.955 1.224 2.106 1.26v-.955c-1.286-.06-2.106-.465-2.106-2.045V480h-1.017v6.407zm-2.6-2.584c-.098 1.322-.784 1.85-1.837 1.85-1.04 0-1.74-.71-1.91-1.85h3.747zm-4.838-.686v.097c0 1.936 1.236 3.284 3 3.284 1.483 0 2.88-.895 2.88-3.185v-.33h-4.827c.05-1.46.747-2.267 2.058-2.267.992 0 1.567.367 1.702 1.114h1.017c-.22-1.286-1.286-1.96-2.73-1.96-1.815 0-3.1 1.275-3.1 3.247m-6.607 3.27h1.102l1.9-5.377 1.873 5.377h1.053L345.843 480h-1.298l-2.327 6.407zm-2.378 0h1.017V480h-1.017v6.407zm-.183 2.01c0 .367.306.673.673.673.368 0 .674-.306.674-.674 0-.367-.306-.673-.674-.673-.367 0-.673.306-.673.673m-2.955 1.053h1.03V480h-1.03v9.47zm-2.624-5.647c-.098 1.322-.784 1.85-1.837 1.85-1.04 0-1.74-.71-1.91-1.85h3.748zm-4.838-.686v.097c0 1.936 1.237 3.284 3 3.284 1.483 0 2.88-.895 2.88-3.185v-.33h-4.827c.05-1.46.747-2.267 2.058-2.267.993 0 1.57.367 1.703 1.114h1.017c-.22-1.286-1.286-1.96-2.73-1.96-1.815 0-3.1 1.275-3.1 3.247m-5.468-2.266c2.254 0 3.38 1.348 3.38 3.492v.097c0 2.02-.98 3.44-3.392 3.44h-1.188v-7.03h1.2zm-2.266 7.89h2.315c3.015 0 4.435-1.863 4.435-4.3v-.11c0-2.426-1.396-4.35-4.458-4.35h-2.29v8.76zm-6.617-8.036c0 .44.354.784.783.784.428 0 .784-.343.784-.784 0-.442-.356-.784-.784-.784-.43 0-.784.342-.784.784m-2.21 3.1c-.098 1.32-.783 1.848-1.836 1.848-1.042 0-1.74-.71-1.91-1.85h3.747zm-4.837-.687v.097c0 1.936 1.236 3.284 3 3.284 1.483 0 2.88-.895 2.88-3.185v-.33h-4.827c.05-1.46.747-2.267 2.057-2.267.993 0 1.568.367 1.703 1.114h1.017c-.22-1.286-1.286-1.96-2.732-1.96-1.812 0-3.097 1.275-3.097 3.247m-6.986 0v.097c0 1.96 1.396 3.284 3.11 3.284 1.336 0 2.585-.613 2.78-2.242h-1.003c-.16 1.016-.895 1.396-1.776 1.396-1.164 0-2.058-.93-2.058-2.438v-.097c0-1.568.858-2.4 2.095-2.4.906 0 1.727.526 1.837 1.567h.943c-.134-1.385-1.25-2.414-2.792-2.414-1.79 0-3.136 1.262-3.136 3.247m-6.852 3.27h1.017v-1.016c.294.6 1.004 1.128 2.058 1.128 1.323 0 2.254-.723 2.254-2.585V480h-1.017v4.006c0 1.127-.477 1.63-1.507 1.63-.943 0-1.788-.6-1.788-1.752V480h-1.017v6.407zm-3.017-4.165v.797h-.882c-1.285 0-2.23-.32-2.23-1.263 0-.66.32-1.078 1.214-1.078 1.077 0 1.898.55 1.898 1.542m-4.127-.465c0 1.482 1.57 1.984 3.21 1.984h.918v.467c0 1.016-.392 1.445-1.37 1.445-.883 0-1.374-.367-1.472-1.15h-1.016c.135 1.456 1.3 1.996 2.535 1.996 1.225 0 2.34-.503 2.34-2.29V480h-1.017v.81c-.478-.6-1.053-.92-1.997-.92-1.187 0-2.13.577-2.13 1.887m-10.626 4.63h1.017v-.98c.295.6.993 1.09 1.912 1.09.82 0 1.544-.342 1.874-1.2.44.833 1.397 1.2 2.193 1.2 1.15 0 2.155-.685 2.155-2.547V480h-1.017v4.043c0 1.127-.477 1.592-1.36 1.592-.833 0-1.69-.563-1.69-1.714V480H280.3v4.043c0 1.127-.476 1.592-1.358 1.592-.833 0-1.69-.563-1.69-1.714V480h-1.018v6.407zm-4.608 0h1.017v-1.15c.405.72.956 1.224 2.107 1.26v-.955c-1.286-.06-2.107-.465-2.107-2.045V480h-1.017v6.407zm-2.637-3.258v.084c0 1.483-.822 2.438-2.096 2.438-1.286 0-2.094-.955-2.094-2.425v-.098c0-1.46.796-2.414 2.094-2.414 1.286 0 2.095.967 2.095 2.413m-5.244 0v.097c0 1.923 1.336 3.27 3.148 3.27 1.813 0 3.148-1.335 3.148-3.258v-.098c0-1.936-1.335-3.272-3.16-3.272-1.825 0-3.136 1.385-3.136 3.26m-3.236 2.4h-.92v.857h.92v1.04c0 1.3.637 2.06 1.91 2.06.332 0 .503-.038.76-.124v-.856c-.183.072-.44.134-.722.134-.662 0-.93-.453-.93-1.1v-1.153h1.567v-.858h-1.568V480h-1.017v5.55zm-5.196.857h1.016v-1.15c.404.72.956 1.224 2.107 1.26v-.955c-1.286-.06-2.107-.465-2.107-2.045V480h-1.016v6.407zm-2.356-2.584c-.098 1.322-.784 1.85-1.837 1.85-1.04 0-1.738-.71-1.91-1.85h3.748zm-4.838-.686v.097c0 1.936 1.237 3.284 3 3.284 1.483 0 2.88-.895 2.88-3.185v-.33h-4.826c.048-1.46.747-2.267 2.057-2.267.994 0 1.57.367 1.704 1.114h1.017c-.22-1.286-1.286-1.96-2.73-1.96-1.814 0-3.1 1.275-3.1 3.247m-2.16.012v.097c0 1.617-.894 2.425-1.972 2.425-1.188 0-2.095-.784-2.095-2.425v-.098c0-1.642.858-2.414 2.107-2.414 1.274 0 1.96.858 1.96 2.413m-5.047 3.257h1.017v-1.078c.368.624 1.237 1.188 2.168 1.188 1.678 0 2.915-1.226 2.915-3.222v-.098c0-1.96-1.15-3.308-2.915-3.308-1.053 0-1.8.528-2.168 1.164v-3.282h-1.017v8.635zm-10.577 3.062h1.017v-4.08c.294.6 1.004 1.128 2.058 1.128 1.324 0 2.255-.723 2.255-2.585V480h-1.017v4.006c0 1.127-.478 1.63-1.507 1.63-.942 0-1.787-.6-1.787-1.752V480h-1.017v9.47zm-3.042-6.15v.086c0 1.433-.784 2.266-2.033 2.266-1.273 0-2.032-.942-2.032-2.29v-.1c0-1.395.894-2.228 1.972-2.228 1.188 0 2.094.833 2.094 2.266m-4.985-3.686h1.04c.147-.735.76-1.115 1.85-1.115 1.26 0 2.058.6 2.058 1.97v.932c-.368-.625-1.238-1.213-2.17-1.213-1.677 0-2.914 1.273-2.914 3.037v.086c0 1.74 1.225 3.185 2.99 3.185 1.065 0 1.726-.515 2.094-1.14v1.03h1.016v-5.978c-.012-1.862-1.274-2.77-3.062-2.77-1.898 0-2.732.896-2.903 1.974m-2.76 6.773h1.018V480h-1.017v6.407zm-.183 2.01c0 .367.307.673.674.673.37 0 .675-.306.675-.674 0-.367-.306-.673-.674-.673-.366 0-.673.306-.673.673m-8.713.343h1.065v-3.97h4.605v3.97h1.065V480h-1.065v3.896h-4.606V480h-1.066v8.76z"
               id="path4536" />
          </g>
        </g>
      </g>
    </g>
  </g>
  <style
     id="style4299">.st0{fill:#FFD42E;} .st1{fill:#FFFFFF;}</style>
  <style
     id="style4364">.st0{fill:#FFD42E;} .st1{fill:#FFFFFF;}</style>
</svg>
